<?xml version="1.0" encoding="utf-8"?>
<!-- Generator: Adobe Illustrator 19.2.1, SVG Export Plug-In . SVG Version: 6.00 Build 0)  -->
<svg version="1.1" id="Layer_1" xmlns="http://www.w3.org/2000/svg" xmlns:xlink="http://www.w3.org/1999/xlink" x="0px" y="0px"
	 width="32px" height="32px" viewBox="0 0 32 32" style="enable-background:new 0 0 32 32;" xml:space="preserve">
<style type="text/css">
	.st0{fill:white;}
</style>
<path class="st0" d="M21.2,15.5L31,5.7c1.3-1.3,1.3-3.4,0-4.7l0,0c-1.3-1.3-3.4-1.3-4.7,0l-9.8,9.8c-0.3,0.3-0.7,0.3-1,0L5.7,1
	C4.4-0.3,2.3-0.3,1,1l0,0c-1.3,1.3-1.3,3.4,0,4.7l9.8,9.8c0.3,0.3,0.3,0.7,0,1L1,26.3c-1.3,1.3-1.3,3.4,0,4.7l0,0
	c1.3,1.3,3.4,1.3,4.7,0l9.8-9.8c0.3-0.3,0.7-0.3,1,0l9.8,9.8c1.3,1.3,3.4,1.3,4.7,0l0,0c1.3-1.3,1.3-3.4,0-4.7l-9.8-9.8
	C20.9,16.2,20.9,15.8,21.2,15.5z"/>
</svg>
